<?xml version="1.0" encoding="UTF-8" standalone="no"?>
<!-- Generator: Adobe Illustrator 26.0.1, SVG Export Plug-In . SVG Version: 6.00 Build 0)  -->

<svg
   version="1.1"
   id="Layer_1"
   x="0px"
   y="0px"
   viewBox="0 0 500 500"
   style="enable-background:new 0 0 500 500;"
   xml:space="preserve"
   sodipodi:docname="scc-ogo.svg"
   inkscape:version="1.4.3 (0d15f75042, 2025-12-25)"
   xmlns:inkscape="http://www.inkscape.org/namespaces/inkscape"
   xmlns:sodipodi="http://sodipodi.sourceforge.net/DTD/sodipodi-0.dtd"
   xmlns="http://www.w3.org/2000/svg"
   xmlns:svg="http://www.w3.org/2000/svg"><defs
   id="defs134"><linearGradient
     id="swatch461"
     inkscape:swatch="solid"><stop
       style="stop-color:#ffffff;stop-opacity:1;"
       offset="0"
       id="stop461" /></linearGradient><linearGradient
     id="swatch460"
     inkscape:swatch="solid"><stop
       style="stop-color:#ffffff;stop-opacity:1;"
       offset="0"
       id="stop460" /></linearGradient><linearGradient
     id="swatch459"
     inkscape:swatch="solid"><stop
       style="stop-color:#ffffff;stop-opacity:1;"
       offset="0"
       id="stop459" /></linearGradient><linearGradient
     id="swatch458"
     inkscape:swatch="solid"><stop
       style="stop-color:#ffffff;stop-opacity:1;"
       offset="0"
       id="stop458" /></linearGradient><linearGradient
     id="swatch457"
     inkscape:swatch="solid"><stop
       style="stop-color:#ffffff;stop-opacity:1;"
       offset="0"
       id="stop457" /></linearGradient><linearGradient
     id="swatch456"
     inkscape:swatch="solid"><stop
       style="stop-color:#ffffff;stop-opacity:1;"
       offset="0"
       id="stop456" /></linearGradient><linearGradient
     id="swatch455"
     inkscape:swatch="solid"><stop
       style="stop-color:#ffffff;stop-opacity:1;"
       offset="0"
       id="stop455" /></linearGradient><linearGradient
     id="swatch454"
     inkscape:swatch="solid"><stop
       style="stop-color:#ffffff;stop-opacity:1;"
       offset="0"
       id="stop454" /></linearGradient><linearGradient
     id="swatch453"
     inkscape:swatch="solid"><stop
       style="stop-color:#ffffff;stop-opacity:1;"
       offset="0"
       id="stop453" /></linearGradient><linearGradient
     id="swatch452"
     inkscape:swatch="solid"><stop
       style="stop-color:#ffffff;stop-opacity:1;"
       offset="0"
       id="stop452" /></linearGradient><linearGradient
     id="swatch451"
     inkscape:swatch="solid"><stop
       style="stop-color:#ffffff;stop-opacity:1;"
       offset="0"
       id="stop451" /></linearGradient><linearGradient
     id="swatch450"
     inkscape:swatch="solid"><stop
       style="stop-color:#ffffff;stop-opacity:1;"
       offset="0"
       id="stop450" /></linearGradient><linearGradient
     id="swatch449"
     inkscape:swatch="solid"><stop
       style="stop-color:#ffffff;stop-opacity:1;"
       offset="0"
       id="stop449" /></linearGradient><linearGradient
     id="swatch448"
     inkscape:swatch="solid"><stop
       style="stop-color:#ffffff;stop-opacity:1;"
       offset="0"
       id="stop448" /></linearGradient><linearGradient
     id="swatch447"
     inkscape:swatch="solid"><stop
       style="stop-color:#ffffff;stop-opacity:1;"
       offset="0"
       id="stop447" /></linearGradient><linearGradient
     id="swatch446"
     inkscape:swatch="solid"><stop
       style="stop-color:#ffffff;stop-opacity:1;"
       offset="0"
       id="stop446" /></linearGradient><linearGradient
     id="swatch445"
     inkscape:swatch="solid"><stop
       style="stop-color:#ffffff;stop-opacity:1;"
       offset="0"
       id="stop445" /></linearGradient><linearGradient
     id="swatch444"
     inkscape:swatch="solid"><stop
       style="stop-color:#ffffff;stop-opacity:1;"
       offset="0"
       id="stop444" /></linearGradient><linearGradient
     id="swatch443"
     inkscape:swatch="solid"><stop
       style="stop-color:#ffffff;stop-opacity:1;"
       offset="0"
       id="stop443" /></linearGradient><linearGradient
     id="swatch442"
     inkscape:swatch="solid"><stop
       style="stop-color:#ffffff;stop-opacity:1;"
       offset="0"
       id="stop442" /></linearGradient><linearGradient
     id="swatch441"
     inkscape:swatch="solid"><stop
       style="stop-color:#ffffff;stop-opacity:1;"
       offset="0"
       id="stop441" /></linearGradient><linearGradient
     id="swatch440"
     inkscape:swatch="solid"><stop
       style="stop-color:#ffffff;stop-opacity:1;"
       offset="0"
       id="stop440" /></linearGradient><linearGradient
     id="swatch439"
     inkscape:swatch="solid"><stop
       style="stop-color:#ffffff;stop-opacity:1;"
       offset="0"
       id="stop439" /></linearGradient><linearGradient
     id="swatch438"
     inkscape:swatch="solid"><stop
       style="stop-color:#ffffff;stop-opacity:1;"
       offset="0"
       id="stop438" /></linearGradient><linearGradient
     id="swatch437"
     inkscape:swatch="solid"><stop
       style="stop-color:#ffffff;stop-opacity:1;"
       offset="0"
       id="stop437" /></linearGradient><linearGradient
     id="swatch436"
     inkscape:swatch="solid"><stop
       style="stop-color:#ffffff;stop-opacity:1;"
       offset="0"
       id="stop436" /></linearGradient><linearGradient
     id="swatch435"
     inkscape:swatch="solid"><stop
       style="stop-color:#000000;stop-opacity:1;"
       offset="0"
       id="stop435" /></linearGradient><linearGradient
     id="swatch434"
     inkscape:swatch="solid"><stop
       style="stop-color:#000000;stop-opacity:1;"
       offset="0"
       id="stop434" /></linearGradient><linearGradient
     id="swatch433"
     inkscape:swatch="solid"><stop
       style="stop-color:#000000;stop-opacity:1;"
       offset="0"
       id="stop433" /></linearGradient><linearGradient
     id="swatch432"
     inkscape:swatch="solid"><stop
       style="stop-color:#000000;stop-opacity:1;"
       offset="0"
       id="stop432" /></linearGradient><linearGradient
     id="swatch431"
     inkscape:swatch="solid"><stop
       style="stop-color:#000000;stop-opacity:1;"
       offset="0"
       id="stop431" /></linearGradient><linearGradient
     id="swatch430"
     inkscape:swatch="solid"><stop
       style="stop-color:#000000;stop-opacity:1;"
       offset="0"
       id="stop430" /></linearGradient><linearGradient
     id="swatch429"
     inkscape:swatch="solid"><stop
       style="stop-color:#000000;stop-opacity:1;"
       offset="0"
       id="stop429" /></linearGradient><linearGradient
     id="swatch428"
     inkscape:swatch="solid"><stop
       style="stop-color:#000000;stop-opacity:1;"
       offset="0"
       id="stop428" /></linearGradient><linearGradient
     id="swatch427"
     inkscape:swatch="solid"><stop
       style="stop-color:#000000;stop-opacity:1;"
       offset="0"
       id="stop427" /></linearGradient><linearGradient
     id="swatch426"
     inkscape:swatch="solid"><stop
       style="stop-color:#000000;stop-opacity:1;"
       offset="0"
       id="stop426" /></linearGradient><linearGradient
     id="swatch425"
     inkscape:swatch="solid"><stop
       style="stop-color:#000000;stop-opacity:1;"
       offset="0"
       id="stop425" /></linearGradient><linearGradient
     id="swatch424"
     inkscape:swatch="solid"><stop
       style="stop-color:#000000;stop-opacity:1;"
       offset="0"
       id="stop424" /></linearGradient><linearGradient
     id="swatch423"
     inkscape:swatch="solid"><stop
       style="stop-color:#000000;stop-opacity:1;"
       offset="0"
       id="stop423" /></linearGradient><linearGradient
     id="swatch422"
     inkscape:swatch="solid"><stop
       style="stop-color:#000000;stop-opacity:1;"
       offset="0"
       id="stop422" /></linearGradient><linearGradient
     id="swatch421"
     inkscape:swatch="solid"><stop
       style="stop-color:#000000;stop-opacity:1;"
       offset="0"
       id="stop421" /></linearGradient><linearGradient
     id="swatch420"
     inkscape:swatch="solid"><stop
       style="stop-color:#000000;stop-opacity:1;"
       offset="0"
       id="stop420" /></linearGradient><linearGradient
     id="swatch419"
     inkscape:swatch="solid"><stop
       style="stop-color:#000000;stop-opacity:1;"
       offset="0"
       id="stop419" /></linearGradient><linearGradient
     id="swatch418"
     inkscape:swatch="solid"><stop
       style="stop-color:#000000;stop-opacity:1;"
       offset="0"
       id="stop418" /></linearGradient><linearGradient
     id="swatch417"
     inkscape:swatch="solid"><stop
       style="stop-color:#000000;stop-opacity:1;"
       offset="0"
       id="stop417" /></linearGradient><linearGradient
     id="swatch416"
     inkscape:swatch="solid"><stop
       style="stop-color:#000000;stop-opacity:1;"
       offset="0"
       id="stop416" /></linearGradient><linearGradient
     id="swatch415"
     inkscape:swatch="solid"><stop
       style="stop-color:#000000;stop-opacity:1;"
       offset="0"
       id="stop415" /></linearGradient><linearGradient
     id="swatch414"
     inkscape:swatch="solid"><stop
       style="stop-color:#000000;stop-opacity:1;"
       offset="0"
       id="stop414" /></linearGradient><linearGradient
     id="swatch413"
     inkscape:swatch="solid"><stop
       style="stop-color:#000000;stop-opacity:1;"
       offset="0"
       id="stop413" /></linearGradient><linearGradient
     id="swatch412"
     inkscape:swatch="solid"><stop
       style="stop-color:#000000;stop-opacity:1;"
       offset="0"
       id="stop412" /></linearGradient><linearGradient
     id="swatch411"
     inkscape:swatch="solid"><stop
       style="stop-color:#000000;stop-opacity:1;"
       offset="0"
       id="stop411" /></linearGradient><linearGradient
     id="swatch410"
     inkscape:swatch="solid"><stop
       style="stop-color:#000000;stop-opacity:1;"
       offset="0"
       id="stop410" /></linearGradient><linearGradient
     id="swatch409"
     inkscape:swatch="solid"><stop
       style="stop-color:#000000;stop-opacity:1;"
       offset="0"
       id="stop409" /></linearGradient><linearGradient
     id="swatch408"
     inkscape:swatch="solid"><stop
       style="stop-color:#000000;stop-opacity:1;"
       offset="0"
       id="stop408" /></linearGradient><linearGradient
     id="swatch407"
     inkscape:swatch="solid"><stop
       style="stop-color:#000000;stop-opacity:1;"
       offset="0"
       id="stop407" /></linearGradient><linearGradient
     id="swatch406"
     inkscape:swatch="solid"><stop
       style="stop-color:#000000;stop-opacity:1;"
       offset="0"
       id="stop406" /></linearGradient><linearGradient
     id="swatch405"
     inkscape:swatch="solid"><stop
       style="stop-color:#000000;stop-opacity:1;"
       offset="0"
       id="stop405" /></linearGradient><linearGradient
     id="swatch404"
     inkscape:swatch="solid"><stop
       style="stop-color:#000000;stop-opacity:1;"
       offset="0"
       id="stop404" /></linearGradient><linearGradient
     id="swatch403"
     inkscape:swatch="solid"><stop
       style="stop-color:#000000;stop-opacity:1;"
       offset="0"
       id="stop403" /></linearGradient><linearGradient
     id="swatch402"
     inkscape:swatch="solid"><stop
       style="stop-color:#000000;stop-opacity:1;"
       offset="0"
       id="stop402" /></linearGradient><linearGradient
     id="swatch401"
     inkscape:swatch="solid"><stop
       style="stop-color:#000000;stop-opacity:1;"
       offset="0"
       id="stop401" /></linearGradient><linearGradient
     id="swatch400"
     inkscape:swatch="solid"><stop
       style="stop-color:#000000;stop-opacity:1;"
       offset="0"
       id="stop400" /></linearGradient><linearGradient
     id="swatch399"
     inkscape:swatch="solid"><stop
       style="stop-color:#000000;stop-opacity:1;"
       offset="0"
       id="stop399" /></linearGradient><linearGradient
     id="swatch398"
     inkscape:swatch="solid"><stop
       style="stop-color:#000000;stop-opacity:1;"
       offset="0"
       id="stop398" /></linearGradient><linearGradient
     id="swatch397"
     inkscape:swatch="solid"><stop
       style="stop-color:#000000;stop-opacity:1;"
       offset="0"
       id="stop397" /></linearGradient><linearGradient
     id="swatch396"
     inkscape:swatch="solid"><stop
       style="stop-color:#000000;stop-opacity:1;"
       offset="0"
       id="stop396" /></linearGradient><linearGradient
     id="swatch395"
     inkscape:swatch="solid"><stop
       style="stop-color:#000000;stop-opacity:1;"
       offset="0"
       id="stop395" /></linearGradient><linearGradient
     id="swatch394"
     inkscape:swatch="solid"><stop
       style="stop-color:#000000;stop-opacity:1;"
       offset="0"
       id="stop394" /></linearGradient><linearGradient
     id="swatch393"
     inkscape:swatch="solid"><stop
       style="stop-color:#000000;stop-opacity:1;"
       offset="0"
       id="stop393" /></linearGradient></defs><sodipodi:namedview
   id="namedview134"
   pagecolor="#505050"
   bordercolor="#ffffff"
   borderopacity="1"
   inkscape:showpageshadow="0"
   inkscape:pageopacity="0"
   inkscape:pagecheckerboard="1"
   inkscape:deskcolor="#505050"
   inkscape:zoom="1.7012989"
   inkscape:cx="218.95036"
   inkscape:cy="275.67172"
   inkscape:window-width="1729"
   inkscape:window-height="1217"
   inkscape:window-x="0"
   inkscape:window-y="0"
   inkscape:window-maximized="0"
   inkscape:current-layer="Layer_1" />
<path
   d=""
   style="fill:#ffffff"
   id="path323" /><path
   d=""
   style="fill:#ffffff"
   id="path322" /><path
   d=""
   style="fill:#ffffff"
   id="path315" /><path
   d=""
   style="fill:#ffffff"
   id="path314" /><path
   d=""
   style="fill:#ffffff"
   id="path313" /><path
   d=""
   style="fill:#ffffff"
   id="path312" /><path
   d=""
   style="fill:#ffffff"
   id="path307" /><path
   d=""
   style="fill:#ffffff"
   id="path297" /><path
   d=""
   style="fill:#ffffff"
   id="path296" /><path
   d=""
   style="fill:#ffffff"
   id="path295" /><path
   d=""
   style="fill:#ffffff"
   id="path294" /><path
   d=""
   style="fill:#ffffff"
   id="path293" /><path
   d=""
   style="fill:#ffffff"
   id="path292" /><path
   d=""
   style="fill:#ffffff"
   id="path291" /><path
   d=""
   style="fill:#ffffff"
   id="path290" /><path
   d=""
   style="fill:#ffffff"
   id="path289" /><path
   d=""
   style="fill:#ffffff"
   id="path288" /><path
   d=""
   style="fill:#ffffff"
   id="path287" /><path
   d=""
   style="fill:#ffffff"
   id="path286" /><path
   d=""
   style="fill:#ffffff"
   id="path284" /><path
   d=""
   style="fill:#ffffff"
   id="path283" /><path
   d=""
   style="fill:#ffffff"
   id="path276" /><path
   d=""
   style="fill:#ffffff"
   id="path275" /><path
   d=""
   style="fill:#ffffff"
   id="path273" /><path
   d=""
   style="fill:#ffffff"
   id="path269" /><path
   d=""
   style="fill:#ffffff"
   id="path268" />

<path
   d="M 252.19531,25.007812 C 126.84531,23.985812 27.049328,124.35422 25.111328,246.07422 23.082328,373.55522 125.95339,475.008 249.90039,475 c 123.607,-0.108 222.87142,-99.18323 224.98242,-220.74023 2.217,-127.662 -100.2655,-228.253957 -222.6875,-229.251958 z m 2.08985,10.820313 c 0.27524,0.0087 0.58801,0.02736 0.94726,0.05273 6.671,0.471 13.334,1.065563 20,1.601563 2.069,0.167 4.13889,0.3495 6.21289,0.4375 0.9,0.038 1.1533,0.333187 1.1543,1.242187 0.006,4.938 0.0289,4.970094 -4.86914,4.621094 -5.468,-0.39 -10.93253,-0.824016 -16.39453,-1.291016 -1.152,-0.099 -1.64721,0.181782 -1.78321,1.425782 -0.588,5.386 -0.87725,4.64814 4.34375,5.11914 3.903,0.352 7.8088,0.680657 11.7168,0.972657 1.027,0.077 1.35577,0.519343 1.38477,1.527343 0.115,4.025 -0.612,4.585907 -4.625,4.128907 -4.064,-0.462 -8.16124,-0.627891 -12.24024,-0.962891 -1.092,-0.09 -1.58898,0.23025 -1.58398,1.40625 0.005,1.147 -0.17869,2.297359 -0.30469,3.443359 -0.137,1.245 0.39844,1.75575 1.64844,1.84375 6.219,0.439 12.43339,0.946203 18.65039,1.408203 2.479,0.184001 2.47992,0.157594 2.29492,2.558594 -0.017,0.231 -0.0193,0.46236 -0.0273,0.69336 -0.098,2.987 -0.098,2.987625 -3.75,2.890625 -6.061,-0.498 -12.89842,-1.063047 -19.73243,-1.623047 -1.89599,-0.155 -3.7924,-0.385297 -5.6914,-0.404297 -1.429,-0.014 -1.60858,-0.744953 -1.51758,-1.876953 0.383,-4.77 0.74409,-9.5425 1.12109,-14.3125 0.314,-3.965 0.69641,-7.923578 0.94141,-11.892578 0.16013,-2.6075 0.17681,-3.070756 2.10352,-3.009766 z m -31.29297,2.058594 c 5.803,-0.028 8.83922,2.160875 10.19922,7.296875 1.137,4.297 1.83593,8.703047 2.21093,13.123047 0.444,5.243 -2.62054,9.17175 -8.06054,10.21875 -7.406,1.425 -14.87069,2.550078 -22.30469,3.830078 -1.267,0.218 -1.41341,-0.553375 -1.56641,-1.484375 -1.343,-8.194 -2.70554,-16.384172 -4.06054,-24.576172 -0.169,-1.024 -0.28263,-2.061313 -0.51563,-3.070313 -0.28,-1.211 0.2151,-1.642125 1.37109,-1.828125 6.823,-1.096 13.63604,-2.257234 20.45704,-3.365234 0.905,-0.147 1.83953,-0.119531 2.26953,-0.144531 z m 104.11133,12.042968 c 0.23408,-0.008 0.50442,0.07011 0.82617,0.22461 8.582,4.125 17.17658,8.226984 25.76758,12.333984 1.027,0.491 1.62514,1.264453 1.61914,2.439453 0.012,1.027 -0.5123,1.884391 -0.9043,2.775391 -0.513,1.161 -1.26619,2.241359 -1.61719,3.443359 -0.879,3.013 -3.08794,3.72061 -5.83594,3.72461 -0.593,0.001 -1.39007,-0.269063 -1.70507,0.460937 -0.258,0.599 0.36111,1.041766 0.66211,1.509766 0.374,0.581 0.78665,1.140734 1.22265,1.677734 1.159,1.427 1.1911,2.898719 0.3711,4.511719 -0.968,1.903 -1.81277,3.86825 -2.75977,5.78125 -1.122,2.266 -2.38395,2.756172 -4.62695,1.701172 -8.461,-3.977 -16.89833,-8.005516 -25.36133,-11.978516 -1.068,-0.501 -1.31216,-1.034765 -0.78516,-2.134765 4.092,-8.535 8.14455,-17.088485 12.18555,-25.646485 0.26187,-0.555625 0.55126,-0.810927 0.94141,-0.824219 z M 166.23828,53.3125 c 2.027,-0.076 3.30914,2.217672 4.86914,3.513672 7.009,5.821 13.94192,11.733797 20.91992,17.591797 0.788,0.661 0.98194,1.09714 -0.16406,1.49414 -0.433,0.151 -0.869,0.339797 -1.25,0.591797 -3.087,2.047 -5.94067,2.358094 -8.38867,-1.003906 -0.562,-0.772 -1.27858,-0.746516 -2.14258,-0.353516 -4.411,2.005 -8.8342,3.982344 -13.2832,5.902344 -1.018,0.44 -1.54799,1.112094 -1.33399,2.121094 0.803,3.793 -1.11723,5.626812 -4.49023,6.507812 -0.385,0.101 -0.75847,0.290188 -1.10547,0.492188 -1.277,0.742 -1.82342,0.416547 -1.48242,-1.064453 0.297,-10.49 0.60505,-20.97875 0.87305,-31.46875 0.025,-0.988 0.32081,-1.625672 1.25781,-2.013672 1.918,-0.793 3.7887,-2.237547 5.7207,-2.310547 z m -37.26367,19.542969 c 0.32064,0.0011 0.62367,0.217558 0.98437,0.662109 2.946,3.631 5.96246,7.204547 8.93946,10.810547 3.051,3.694 6.04529,7.437031 9.15429,11.082031 0.843,0.988 0.65733,1.494875 -0.26367,2.171875 -1.161,0.854 -2.31861,1.736282 -3.34961,2.738279 -0.927,0.901 -1.44359,0.68163 -2.18359,-0.23437 -2.94,-3.638002 -5.95031,-7.220456 -8.94531,-10.814456 -0.31,-0.373 -0.49911,-0.948609 -1.41211,-0.849609 0.467,2.031 0.90472,4.028578 1.38672,6.017578 0.882,3.647 1.74298,7.298827 2.70898,10.923827 0.314,1.178 0.15809,2.02664 -0.87891,2.68164 -0.194,0.123 -0.36596,0.28169 -0.54296,0.42969 -3.524,2.95 -3.50866,2.91464 -7.72266,0.93164 -4.024,-1.893 -8.08486,-3.70483 -12.13086,-5.54883 -0.307,-0.14 -0.609,-0.34914 -1.125,-0.11914 0.063,0.814 0.70283,1.3332 1.17383,1.9082 2.781,3.394 5.54725,6.80286 8.40625,10.13086 0.854,0.994 0.82355,1.61886 -0.18945,2.38086 -1.51801,1.141 -2.94329,3.20521 -4.48829,3.28321 -1.515,0.077 -2.46581,-2.44285 -3.63281,-3.83985 -5.183,-6.204 -10.28398,-12.4794 -15.458983,-18.691404 -0.735,-0.883 -0.753156,-1.406547 0.214844,-2.060547 0.856999,-0.579 1.745669,-1.199234 2.388669,-1.990234 1.898,-2.334 3.83974,-2.214313 6.42774,-0.945313 5.959,2.922001 12.08348,5.506844 18.14648,8.214848 0.511,0.228 1.11152,0.737 1.60352,0.375 0.621,-0.456 0.13404,-1.18077 -0.002,-1.75977 -1.669,-7.083999 -3.33731,-14.168328 -5.07031,-21.236328 -0.299,-1.218 -0.16051,-2.06289 0.89649,-2.83789 1.394,-1.022 2.72586,-2.142641 4.00585,-3.306641 0.34344,-0.311937 0.62631,-0.482921 0.89454,-0.505859 0.0216,-0.0018 0.0431,-0.002 0.0645,-0.002 z m 243.94726,1.412109 c 0.13256,0.0026 0.29969,0.07805 0.50782,0.248047 1.698,1.386 3.36701,2.808609 5.04101,4.224609 0.337,0.285 0.40542,0.685469 0.35742,1.105469 -0.34499,3.908 -0.68815,7.814703 -1.03515,11.720703 -0.117,1.322 -0.18295,2.652891 -0.37695,3.962891 -0.214,1.439 0.43193,1.572906 1.58593,1.253906 4.338,-1.199 8.70972,-2.27875 13.01172,-3.59375 2.014,-0.615 3.64739,-0.634844 5.15039,1.035156 0.764,0.849 1.77558,1.470469 2.64258,2.230469 0.373,0.327 1.03019,0.605735 0.86719,1.177734 -0.157,0.551 -0.85866,0.492282 -1.34766,0.613282 -6.891,1.71 -13.78159,3.430656 -20.68359,5.097656 -1.304,0.315 -2.2881,0.93528 -3.1211,1.98828 -1.539,1.944 -3.19262,3.79685 -4.76562,5.71485 -0.698,0.85 -1.30663,0.92462 -2.14063,0.14062 -1.135,-1.066 -2.33731,-2.06658 -3.57031,-3.01758 -0.83,-0.64 -0.89873,-1.13317 -0.17773,-1.95117 1.793,-2.034 3.48037,-4.16052 5.23437,-6.228516 0.499,-0.588 0.89346,-1.181375 0.93946,-1.984375 0.351,-6.099 0.71107,-12.198875 1.08007,-18.296875 0.094,-1.553 0.22861,-3.103296 0.34961,-4.654297 0.0351,-0.44825 0.15955,-0.792786 0.45117,-0.787109 z m -122.7832,1.738281 c 96.153,0.085 173.72089,77.751281 173.83789,173.863281 0.118,96.166 -78.21431,175.96598 -177.57031,174.08398 -93.723,-1.77599 -170.317609,-78.0129 -170.349609,-174.0039 -0.032,-96.144 77.696029,-173.991361 174.082029,-173.943361 z M 433.55469,255.29102 c 0.27744,0.007 0.63086,0.27437 1.05273,0.68359 2.319,2.249 4.67467,4.45855 7.01367,6.68555 2.757,2.625 5.58738,5.18011 8.23438,7.91211 1.231,1.27 2.62167,1.77017 4.26367,1.95117 2.119,0.233 4.23152,0.53347 6.35352,0.73047 1.257,0.117 1.75826,0.7144 1.57226,1.9414 -0.193,1.367 -0.46054,2.73052 -0.56055,4.10352 -0.097,1.344 -0.81775,1.62784 -1.96875,1.46484 -2.16699,-0.306 -4.3419,-0.56629 -6.5039,-0.9043 -1.538,-0.241 -2.92341,-0.0438 -4.31641,0.74219 -6.079,3.429 -12.19564,6.78916 -18.30664,10.16016 -0.479,0.264 -1.01178,0.85492 -1.55078,0.41992 -0.478,-0.385 -0.20781,-1.08248 -0.13281,-1.64648 0.181,-1.37 0.49529,-2.73443 0.52929,-4.10743 0.033,-1.357 0.66883,-2.09101 1.79883,-2.66601 4.267,-2.171 8.51367,-4.38289 12.76367,-6.58789 1.70801,-0.887 1.70144,-1.08928 0.27344,-2.36328 -3.743,-3.339 -7.4595,-6.70746 -11.1875,-10.06446 -0.439,-0.396 -0.8127,-0.80951 -0.7207,-1.47851 0.266,-1.939 0.52872,-3.87927 0.76172,-5.82227 0.1004,-0.83406 0.31643,-1.16198 0.63086,-1.15429 z M 66.15625,258.4707 c 1.023188,-0.0219 1.111406,0.40766 1.347656,2.12891 1.34,9.767 2.647047,19.53802 3.998047,29.54101 0.496,1.295 -0.267531,1.6625 -1.644531,1.8125 -4.055,0.437 -4.071844,0.48604 -4.714844,-3.54296 -0.354,-2.221 -0.693297,-4.4495 -0.904297,-6.6875 -0.145,-1.537 -0.782797,-2.16336 -2.341797,-1.94336 -7.021,0.988 -14.056359,1.89726 -21.068359,2.94726 -1.413,0.211 -1.9155,-0.25081 -2.0625,-1.50781 -0.168,-1.431 -0.283734,-2.87316 -0.552734,-4.28516 -0.204,-1.07 0.1615,-1.4587 1.1875,-1.5957 6.747,-0.902 13.484375,-1.87391 20.234375,-2.75391 3.21,-0.418 3.237125,-0.35192 2.828125,-3.54492 -0.359,-2.804 -0.714922,-5.60944 -1.169922,-8.39844 -0.184,-1.12699 0.126765,-1.63289 1.259765,-1.71289 0.746,-0.052 1.484516,-0.2204 2.228516,-0.3164 0.58925,-0.0763 1.033937,-0.13331 1.375,-0.14063 z m 360.45312,42.56641 c 0.38347,-0.0188 0.83691,0.13231 1.39454,0.42969 0.911,0.486 1.916,0.79536 2.875,1.19336 0.345,0.143 0.57114,0.37987 0.49414,0.92187 -0.117,0.316 -0.27046,0.75169 -0.43946,1.17969 -1.135,2.902 -2.24073,5.81626 -3.42773,8.69726 -0.508,1.233 -0.23289,1.85857 1.03711,2.35157 6.616,2.568 13.1855,5.25592 19.8125,7.79492 1.552,0.594 1.78428,1.33665 1.11328,2.72265 -0.577,1.192 -1.09109,2.4275 -1.49609,3.6875 -0.415,1.289 -1.12614,1.13519 -2.11914,0.74219 -6.222,-2.465 -12.45532,-4.90326 -18.69532,-7.32226 -3.35,-1.298 -2.84284,-1.61227 -4.21484,1.80273 -1.011,2.516 -2.01955,5.03589 -2.93555,7.58789 -0.441,1.23 -0.95158,1.57025 -2.26758,1.03125 -4.056,-1.661 -4.09404,-1.61061 -2.49804,-5.72461 3.299,-8.5 6.66376,-16.9749 9.88476,-25.5039 0.40063,-1.06 0.84332,-1.56046 1.48242,-1.5918 z m -352.085933,2.68164 c 0.213318,-0.0106 0.406938,0.0746 0.539063,0.35937 0.897,1.935 1.693156,3.91652 2.410156,5.60352 0.117,1.123 -0.557593,1.23045 -1.058594,1.43945 -2.822999,1.182 -5.642187,2.37628 -8.492187,3.48828 -1.199,0.468 -1.387578,1.07419 -0.892578,2.24219 1.914,4.519 3.793172,9.05496 5.576172,13.62696 0.545,1.397 1.1415,1.762 2.5625,1.125 2.739,-1.228 5.565265,-2.25822 8.322265,-3.44922 0.987,-0.426 1.464266,-0.21043 1.822266,0.76757 0.496,1.355 1.023109,2.70705 1.662109,3.99805 0.661,1.337 0.210016,1.92927 -1.083984,2.44727 -7.236,2.899 -14.443156,5.8684 -21.660156,8.8164 -1.337,0.546 -2.682,1.07411 -4,1.66211 -0.976,0.435 -1.587516,0.32813 -1.978516,-0.79687 -0.511,-1.47 -1.12725,-2.91022 -1.78125,-4.32422 -0.442,-0.956 -0.238141,-1.43527 0.755859,-1.82227 2.798001,-1.088 5.534563,-2.339 8.351563,-3.375 1.476,-0.543 1.623781,-1.25361 1.050781,-2.59961 -1.9,-4.463 -3.73739,-8.95484 -5.52539,-13.46484 -0.513,-1.295 -1.113938,-1.66445 -2.460938,-1.06445 -2.741,1.221 -5.565406,2.25608 -8.316406,3.45508 -1.118,0.488 -1.649063,0.25337 -2.039063,-0.89063 -0.521,-1.528 -1.173546,-3.01205 -1.810547,-4.49805 -0.324,-0.756 -0.333921,-1.23937 0.580079,-1.60937 8.883,-3.596 17.751953,-7.2297 26.626953,-10.8457 0.258187,-0.10519 0.565579,-0.27739 0.839843,-0.29102 z M 407.38477,343.0918 c 0.31211,0.0132 0.66422,0.15524 1.07421,0.41211 5.676,3.555 11.37632,7.06775 17.07032,10.59375 2.208,1.368 4.42595,2.72056 6.62695,4.10156 0.466,0.292 1.08333,0.50687 0.98633,1.54687 -1.042,1.624 -2.18269,3.49311 -3.42969,5.28711 -0.321,0.462 -0.86333,-4.7e-4 -1.23633,-0.23047 -8.204,-5.066 -16.39647,-10.14612 -24.60547,-15.20312 -0.651,-0.402 -0.71931,-0.77363 -0.32031,-1.39063 0.878,-1.357 1.76888,-2.71195 2.54688,-4.12695 0.35043,-0.63731 0.71362,-0.95305 1.15625,-0.98828 0.043,-0.003 0.0863,-0.004 0.13086,-0.002 z M 94.9375,347.52734 c 0.453265,0.0268 0.825359,0.37708 1.279297,0.99414 5.269003,7.161 10.569543,14.29677 15.935543,21.38477 0.91,1.202 0.74122,1.87147 -0.42578,2.60547 -0.779,0.49 -1.5547,1.02234 -2.2207,1.65234 -1.065,1.009 -1.64502,0.63631 -2.41602,-0.42969 -3.686,-5.099 -7.448981,-10.1415 -11.208981,-15.1875 -0.393,-0.52799 -0.67914,-1.24126 -1.36914,-1.32226 -0.585,0.012 -4.414532,2.83825 -4.519532,3.28125 -0.174999,0.727 0.366469,1.18678 0.730469,1.67578 2.859,3.844 5.697625,7.70242 8.640625,11.48242 0.850999,1.093 0.748779,1.68128 -0.324219,2.48828 -3.311,2.49 -3.288843,2.52686 -5.714843,-0.74414 -2.442,-3.292 -4.918016,-6.55939 -7.291016,-9.90039 -0.79,-1.113 -1.407719,-1.20892 -2.511719,-0.41992 -3.998,2.859 -4.048562,2.84494 -1.226562,6.71094 3.301,4.522 6.620766,9.03033 10.009765,13.48633 0.782,1.028 0.756079,1.5617 -0.294921,2.3457 -3.73,2.784 -3.663969,2.78897 -6.417969,-0.95703 -4.754,-6.464 -9.538094,-12.9075 -14.371094,-19.3125 -0.9,-1.194 -1.049969,-1.85924 0.332031,-2.86524 7.419,-5.403 14.778516,-10.88697 22.103516,-16.41797 0.526313,-0.39724 0.92871,-0.57164 1.28125,-0.55078 z m 300.39453,14.54102 c 1.55376,-0.0623 2.50044,2.03727 3.66406,3.08398 6.048,5.439 11.94788,11.04246 17.92188,16.56446 0.883,0.816 0.91948,1.51792 0.0215,2.29492 -0.174,0.15 -0.32142,0.33009 -0.48242,0.49609 -3.883,4.013 -3.88848,4.08077 -9.39648,3.63477 -2.884,-0.233 -5.76349,-0.20916 -8.64649,-0.28516 -3.517,-0.093 -7.03378,-0.23092 -10.55078,-0.29492 -0.689,-0.013 -1.70509,-0.43408 -1.99609,0.41992 -0.224,0.66 0.69154,1.10255 1.18554,1.56055 3.978,3.685 7.94275,7.38262 11.96875,11.01562 1.074,0.969 1.35375,1.6708 0.0937,2.7168 -1.058,0.878 -2.01242,1.91686 -2.85742,3.00586 -0.783,1.009 -1.33231,0.90266 -2.19531,0.0977 -5.485,-5.116 -11.01044,-10.18744 -16.52344,-15.27344 -1.4,-1.291 -2.77489,-2.61142 -4.21289,-3.85742 -0.85,-0.738 -0.86684,-1.36139 -0.0898,-2.15039 1.174,-1.192 2.30864,-2.42407 3.43164,-3.66407 0.574,-0.634 1.29459,-0.66411 2.05859,-0.66211 2.944,0.007 5.88811,0.002 10.16211,0.002 3.636,-0.167 8.59078,0.23462 13.55078,0.26562 0.541,0.004 1.29811,0.26494 1.53711,-0.41406 0.191,-0.542 -0.45731,-0.8768 -0.82031,-1.2168 -4.002,-3.745 -7.98978,-7.50359 -12.05078,-11.18359 -0.902,-0.817 -1.0226,-1.41081 -0.1836,-2.25781 1.299,-1.312 2.35821,-3.30764 3.90821,-3.80664 0.17465,-0.0563 0.34122,-0.0854 0.50195,-0.0918 z m -34.54883,33.79297 c 0.0312,-0.002 0.0615,-0.002 0.0918,0 0.31174,0.0192 0.57736,0.23623 0.84961,0.66992 4.725,7.535 9.47584,15.05408 14.21484,22.58008 0.376,0.596 0.6008,1.24784 0.5918,1.96484 0.011,1.081 -0.48867,1.8666 -1.38867,2.4336 -7.721,4.863 -15.42897,9.74703 -23.16797,14.58203 -1.852,1.157 -3.28078,0.7797 -4.42578,-1.0293 -4.662,-7.37 -9.28638,-14.76433 -13.98438,-22.11133 -0.763,-1.194 -0.72397,-1.87992 0.58203,-2.54492 1.128,-0.573 2.22071,-1.25725 3.22071,-2.03125 1.206,-0.933 1.91279,-0.75641 2.71679,0.55859 3.225,5.27 6.57027,10.46671 9.82227,15.72071 2.394,3.867 2.36495,3.89765 6.25195,1.47265 3.479,-2.171 6.91664,-4.40953 10.43164,-6.51953 1.149,-0.69 1.18063,-1.27812 0.51563,-2.32812 -3.863,-6.097 -7.6563,-12.24003 -11.5293,-18.33203 -0.675,-1.061 -0.70805,-1.66388 0.50195,-2.29688 1.377,-0.721 2.66594,-1.61442 3.96094,-2.48242 0.28214,-0.18911 0.52542,-0.2935 0.74414,-0.30664 z m -220.98047,0.74414 c 0.65255,0.0336 1.38727,0.33359 2.27539,0.88867 6.07,3.795 12.12265,7.61674 18.18165,11.42773 1.515,0.953 3.02182,1.92152 4.54882,2.85352 0.933,0.569 1.3595,1.37608 1.3125,2.45508 0.027,0.709 -0.14039,1.37061 -0.52539,1.97461 -1.24,1.948 -2.50603,3.88151 -3.70703,5.85351 -0.512,0.841 -1.07356,0.92783 -1.85156,0.42383 -1.405,-0.909 -2.80724,-1.8235 -4.24024,-2.6875 -0.73799,-0.445 -0.88978,-0.85115 -0.42578,-1.66015 0.697,-1.213 2.29416,-2.29557 1.78516,-3.72657 -0.468,-1.314 -2.22959,-1.71137 -3.43359,-2.48437 -3.4,-2.183 -6.86182,-4.26999 -10.25782,-6.45899 -1.026,-0.661 -1.61142,-0.48237 -2.23242,0.51563 -2.834,4.56 -5.70294,9.09795 -8.58594,13.62695 -0.567,0.89 -0.36467,1.45728 0.48633,1.98828 4.358,2.72 8.70988,5.45303 13.04688,8.20703 0.902,0.572 1.59911,0.55104 2.16211,-0.41796 0.087,-0.15 0.1872,-0.29155 0.2832,-0.43555 2.157,-3.228 2.18216,-3.26877 5.53516,-1.13477 3.491,2.221 3.16289,1.29035 1.08789,4.77735 -0.827,1.389 -1.6988,2.75065 -2.5918,4.09765 -1.451,2.187 -2.89533,2.50433 -5.11133,1.11133 -6.792,-4.272 -13.57337,-8.5608 -20.35937,-12.8418 -0.537,-0.339 -1.07914,-0.67085 -1.61914,-1.00586 -2.407,-1.492 -2.75557,-2.86745 -1.22657,-5.31445 3.457,-5.532 6.95164,-11.04159 10.43164,-16.55859 0.739,-1.172 1.46452,-2.35181 2.22852,-3.50781 0.83306,-1.26 1.60116,-1.90201 2.52734,-1.96485 0.09,-0.006 0.18217,-0.007 0.27539,-0.002 z m 179.08204,23.37695 c 0.56835,0.002 0.9114,0.34813 1.1289,1.10938 2.598,9.096 5.21919,18.18558 7.86719,27.26757 0.326,1.118 -0.0734,1.57222 -1.10742,1.82422 -1.456,0.355 -2.91913,0.72161 -4.32813,1.22461 -1.133,0.405 -1.55475,-0.015 -1.84375,-1.04297 -1.25,-4.442 -2.53922,-8.87268 -3.82422,-13.30468 -0.155,-0.535 -0.13245,-1.16166 -0.81445,-1.59766 -0.816,1.899 -0.85166,3.92147 -1.22266,5.85547 -0.751,3.905 -1.41692,7.82786 -2.04492,11.75586 -0.142,0.891 -0.54533,1.3253 -1.36133,1.5293 -0.783,0.196 -1.61231,0.32073 -2.32031,0.67773 -2.417,1.218 -3.94325,0.25308 -5.53125,-1.66992 -3.121,-3.78 -6.48481,-7.35867 -9.75781,-11.01367 -0.253,-0.283 -0.46795,-0.70007 -1.00195,-0.53907 -0.37,0.585 0.0297,1.10196 0.17968,1.62696 1.251,4.386 2.48693,8.77748 3.79493,13.14648 0.385,1.286 0.28367,2.06684 -1.23633,2.33984 -1.186,0.213 -2.37233,0.54982 -3.48633,1.00782 -1.55,0.638 -2.06189,0.0174 -2.46289,-1.43164 -1.893,-6.842 -3.8828,-13.65552 -5.8418,-20.47852 -0.573,-1.997 -1.11681,-4.00547 -1.75781,-5.98047 -0.384,-1.183 -0.17028,-1.81328 1.13672,-2.11328 1.74,-0.399 3.45034,-0.93837 5.15234,-1.48437 0.952,-0.306 1.59949,-0.0879 2.27149,0.66406 4.885,5.464 9.80551,10.89617 14.72851,16.32617 0.414,0.457 0.80561,1.19436 1.47461,1.06836 0.788,-0.149 0.56878,-1.01747 0.67578,-1.60547 1.276,-7.032 2.56502,-14.06447 3.79102,-21.10547 0.243,-1.396 0.75872,-2.28675 2.26172,-2.59375 1.635,-0.333 3.23003,-0.86756 4.83203,-1.35156 0.24325,-0.0735 0.45898,-0.11191 0.64844,-0.11133 z m -136.57422,0.21875 c 0.48661,0.006 1.04068,0.10974 1.67968,0.30274 8.612,2.6 17.21132,5.24161 25.82032,7.84961 1.468,0.445 2.52809,1.1651 2.49609,2.9121 -0.139,0.67401 -0.22583,1.36354 -0.42383,2.01954 -2.224,7.341 -4.45303,14.68167 -6.70703,22.01367 -1.036,3.369 -1.79464,3.75065 -5.18164,2.72265 -8.109,-2.462 -16.21731,-4.92334 -24.32031,-7.40234 -3.732,-1.141 -4.08947,-1.77766 -2.98047,-5.47266 2.219,-7.399 4.46451,-14.79078 6.72851,-22.17578 0.59175,-1.9305 1.42885,-2.78753 2.88868,-2.76953 z m 50.92187,11.71289 c 0.77526,0.0245 1.51149,0.13622 2.16211,0.4336 1.79,0.818 2.10186,3.41976 3.00586,5.25976 2.598,5.284 5.07323,10.62941 7.61523,15.94141 0.235,0.492 0.31396,1.28976 1.00196,1.25976 0.539,-0.023 0.63914,-0.75222 0.86914,-1.19922 3.353,-6.521 6.72276,-13.03289 10.00976,-19.58789 0.607,-1.211 1.3356,-1.71723 2.6836,-1.61523 1.666,0.126 3.34553,0.0763 5.01953,0.11328 1.05,0.023 1.4615,0.46224 1.4375,1.61524 -0.194,9.294 -0.33955,18.58876 -0.43555,27.88476 -0.014,1.365 -0.47426,1.88239 -1.82226,1.77539 -1.719,-0.137 -3.91393,0.6755 -5.04493,-0.3125 -1.17099,-1.024 -0.35199,-3.26189 -0.375,-4.96289 -0.045,-3.349 0.0632,-6.69883 0.0762,-10.04883 0.003,-0.601 0.2229,-1.25861 -0.4961,-2.09961 -0.623,1.206 -1.15506,2.21347 -1.66406,3.23047 -2.049,4.076 -4.13133,8.1371 -6.11133,12.2461 -0.587,1.217 -1.33959,1.64776 -2.68359,1.63476 -5.235,-0.05 -5.20786,-0.0184 -7.38086,-4.85742 -1.726,-3.844 -3.51969,-7.65761 -5.30469,-11.47461 -0.181,-0.386 -0.26294,-1.06203 -0.83594,-0.95703 -0.604,0.111 -0.34595,0.76569 -0.37695,1.17969 -0.31,4.152 -0.11525,8.31275 -0.15625,12.46875 -0.033,3.334 -0.0108,3.33492 -3.25976,3.29492 -0.635,-0.008 -1.27125,-0.0116 -1.90625,-0.0176 -2.427,-0.022 -2.54143,-0.0606 -2.35743,-2.39258 0.479,-6.056 0.19527,-12.12164 0.32227,-18.18164 0.062,-3 0.22234,-5.99804 0.27734,-8.99805 0.02,-1.11 0.46141,-1.60785 1.56641,-1.50585 0.057,0.006 0.11583,9.5e-4 0.17383,0.002 1.29687,0.03 2.69814,-0.1697 3.99023,-0.12891 z"
   style="fill:#ffffff"
   id="path244" /><path
   d="m 249.50781,111.56641 c 0,1.869 0.0211,3.73842 -0.006,5.60742 -0.021,1.434 -0.58865,2.08098 -2.22265,2.08398 -6.24,0.01 -12.44522,0.65311 -18.57422,1.78711 -28.019,5.184 -51.57258,18.37406 -70.39258,39.78906 -18.245,20.761 -28.10798,45.10133 -29.95898,72.61133 -0.715,10.613 -0.0951,21.23117 2.08593,31.70117 5.63,27.033 18.76577,49.70841 39.50977,67.94141 16.475,14.481 35.57364,23.64986 57.05664,27.88086 6.63,1.306 13.34242,2.03875 20.10742,2.09375 1.351,0.011 1.83813,0.45278 1.82813,1.80078 -0.014,1.785 0.0804,3.58242 0.27539,5.35742 0.189,1.726 -0.50832,2.01188 -2.07032,1.79688 -13.773,-1.894 -27.28775,-4.81503 -40.34375,-9.70703 -22.257,-8.34 -41.65635,-20.81291 -57.06836,-39.12891 -8.94299,-10.629 -15.8231,-22.46467 -20.5371,-35.51367 -7.43,-20.567 -9.63993,-41.74808 -7.16993,-63.45508 1.697,-14.913 5.95386,-29.06806 12.75586,-42.41406 7.231,-14.19 16.84938,-26.58256 28.73438,-37.22656 9.753,-8.735 20.499,-15.92369 32.375,-21.42969 0.677,-0.314 1.3369,-0.666 2.0039,-1 -0.539,-0.195 -0.91629,-0.0787 -1.27929,0.0703 -9.184,3.758 -17.76327,8.61186 -25.82227,14.38086 -16.892,12.092 -30.5385,27.06442 -40.3125,45.48242 -8.245,15.537 -12.81464,32.11619 -13.93164,49.61719 -0.426,6.668 -0.26726,13.36755 0.17774,20.06055 0.665,9.999 2.26056,19.82403 4.97656,29.45703 7.717,27.365 23.05778,49.52315 45.80078,66.53515 15.634,11.694 33.09783,19.67864 51.79883,25.05664 3.943,1.134 7.92736,2.1168 12.06836,3.2168 -4.193,0.91 -8.16213,1.91977 -12.07813,3.13477 -2.71,0.841 -3.10522,1.59692 -2.19922,4.29492 0.218,0.65 0.51296,1.29205 0.87696,1.87305 0.687,1.097 1.59631,1.48882 2.94531,1.04882 8.685,-2.833 17.61245,-4.67487 26.56445,-6.42187 1.54,-0.301 1.72285,0.2432 1.83985,1.5332 0.355,3.923 0.13387,7.85339 0.29687,11.77539 0.024,0.584 -0.131,1.22667 0.375,1.88867 0.489,-0.747 0.36248,-1.44937 0.39648,-2.10937 0.19901,-3.863 -0.0917,-7.73361 0.27735,-11.59961 0.129,-1.352 0.42944,-1.76647 1.89844,-1.48047 8.953,1.742 17.86936,3.6133 26.56836,6.4043 0.548,0.176 1.07778,0.3627 1.67578,0.0957 1.252,-0.559 2.58181,-3.27622 2.50781,-5.07422 -0.072,-1.746 -1.46448,-1.86433 -2.64649,-2.23633 -3.896,-1.227 -7.86657,-2.18736 -12.26757,-3.19336 8.845,-1.988 17.09787,-4.37028 25.17187,-7.36328 18.389,-6.816 35.18005,-16.34489 49.62305,-29.71289 15.347,-14.205 26.39631,-31.2617 33.07031,-51.0957 6.326,-18.799 8.29524,-38.13805 6.99024,-57.87305 -0.492,-7.453 -1.71958,-14.77847 -3.64258,-21.98047 -5.174,-19.381 -14.55724,-36.47904 -27.99024,-51.37304 -12.187,-13.513 -26.51315,-24.15077 -42.91015,-32.00977 -2.106,-1.009 -4.28664,-1.86983 -6.43164,-2.79883 1.551,1.472 3.50817,2.1356 5.32617,3.0586 14.841,7.533 27.83803,17.45147 38.95703,29.85547 8.905,9.934 16.09314,20.97039 21.49414,33.15039 9.497,21.416 12.45516,43.85554 10.16016,67.06054 -1.696,17.148 -6.32927,33.42882 -14.57227,48.63282 -7.933,14.631 -18.5115,27.01201 -31.5625,37.29101 -11.9,9.373 -25.08925,16.41902 -39.28125,21.66602 -13.075,4.835 -26.59009,7.75375 -40.37109,9.59375 -1.173,0.156 -1.73872,-0.0884 -1.63672,-1.39844 0.148,-1.898 0.27586,-3.80408 0.25586,-5.70508 -0.015,-1.42 0.49883,-1.88962 1.92383,-1.89062 6.246,-0.005 12.46121,-0.60655 18.57421,-1.81055 39.462,-7.775 68.75594,-29.47108 87.33594,-65.08008 11.41,-21.866 15.16438,-45.34786 12.23438,-69.88086 -1.618,-13.548 -5.40611,-26.45283 -11.41211,-38.67383 -10.126,-20.604 -24.89063,-37.13107 -44.26563,-49.45507 -19.107,-12.154 -40.04573,-18.40425 -62.67773,-18.90625 -1.824,-0.04 -2.28755,-0.77433 -2.31055,-2.36133 -0.025,-1.769 0.17861,-3.56074 -0.27539,-5.30274 -0.224,-0.008 -0.44783,-0.0174 -0.67383,-0.0234 z m 2.875,9.95898 c 19.014,0.574 36.96853,5.18095 53.76953,14.12695 9.009,4.797 17.27997,10.6488 24.79297,17.5918 17.772,16.422 29.42171,36.41909 35.22071,59.87109 2.27,9.181 3.40417,18.53204 3.32617,27.95704 -0.233,28.045 -8.82944,53.27414 -26.52344,75.11914 -19.158,23.652 -43.99361,37.781 -73.97461,42.875 -5.237,0.89 -10.5388,1.21795 -15.8418,1.50195 -1.466,0.079 -2.17681,-0.35655 -2.00781,-1.93555 0.141,-1.317 0.24045,-2.65265 0.18945,-3.97265 -0.068,-1.754 0.82766,-2.00241 2.34766,-2.06641 24.467,-1.028 46.44458,-8.93531 65.64258,-24.19531 13.022,-10.351 23.31622,-23.0026 30.69922,-37.9336 6.152,-12.441 9.88183,-25.58521 11.04883,-39.44922 0.185,-2.192 0.19912,-4.3794 0.32812,-6.5664 0.142,-2.424 0.16367,-2.42166 2.26367,-3.47266 -2.405,-0.183 -2.25144,-1.9457 -2.27344,-3.4707 -0.139,-9.294 -1.65351,-18.3752 -4.22851,-27.2832 -4.409,-15.255 -11.77941,-28.93916 -22.06641,-41.03516 -13.205,-15.528 -29.42859,-26.68953 -48.68359,-33.39453 -8.202,-2.856 -16.62692,-4.758 -25.29492,-5.5 -2.814,-0.241 -5.63213,-0.46642 -8.45313,-0.60742 -1.103,-0.055 -1.51334,-0.45055 -1.52734,-1.56055 -0.022,-1.67 -0.17527,-3.34086 -0.32227,-5.00586 -0.105,-1.192 0.32236,-1.63175 1.56836,-1.59375 z m -4.31054,0.0176 c 0.7771,-0.002 1.19459,0.32267 1.12109,1.31055 -0.141,1.897 -0.2627,3.79821 -0.3457,5.69921 -0.048,1.109 -0.81213,1.04914 -1.57813,1.11914 -3.73,0.34201 -7.47417,0.44797 -11.20117,0.91797 -15.941,2.011 -30.82405,7.11222 -44.37305,15.69922 -28.248,17.901 -45.47492,43.37574 -51.54492,76.30274 -0.878,4.764 -1.3248,9.59826 -1.4668,14.44726 -0.084,2.883 -0.0388,2.88503 -2.71679,4.33203 3.025,-0.172 2.66084,1.67505 2.71484,3.37305 0.474,14.176 3.49134,27.78673 9.15234,40.80273 6.29,14.46101 15.31625,26.99968 26.90625,37.63868 16.989,15.596 36.97283,25.0307 59.79883,28.3457 4.045,0.588 8.14842,0.81527 12.23242,1.07227 1.325,0.083 1.86171,0.48221 1.84571,1.82421 -0.017,1.38 0.10009,2.76758 0.24609,4.14258 0.159,1.501 -0.3944,2.12814 -1.94141,1.99414 -3.677,-0.318 -7.3751,-0.43218 -11.0371,-0.86718 -13.124,-1.559 -25.66375,-5.17558 -37.59375,-10.89258 -9.113,-4.367 -17.54705,-9.79532 -25.24805,-16.32032 -12.634,-10.704 -22.69553,-23.46603 -30.01953,-38.33203 -6.233,-12.654 -10.13338,-25.99092 -11.60938,-40.04492 -2.167,-20.64 0.6738,-40.53306 8.7168,-59.66406 4.873,-11.592 11.48633,-22.10656 19.73633,-31.60156 10.281,-11.832 22.39076,-21.33733 36.38476,-28.36133 12.426,-6.237 25.52263,-10.38105 39.39063,-11.99805 4.02,-0.469 8.05722,-0.51492 12.07422,-0.91992 0.12525,-0.0126 0.24445,-0.0193 0.35547,-0.0195 z m 5.1621,11.6543 c 17.29501,0.729 33.62176,4.9505 48.84375,13.3125 9.90501,5.441 18.75533,12.23503 26.48633,20.45703 14.284,15.192 23.43841,33.04458 27.44141,53.51757 0.998,5.10101 1.61669,10.25335 1.80469,15.02735 0,0.888 -0.009,1.35045 0.002,1.81445 0.058,2.833 0.0557,2.8747 -2.86328,2.5957 -7.064,-0.676 -14.12455,-1.38665 -21.18555,-2.09765 -2.133,-0.215 -2.41208,-0.47778 -2.58008,-3.05078 -0.599,-9.153 -2.89551,-17.88138 -6.60351,-26.23438 -7.287,-16.415 -18.76878,-29.08493 -34.30078,-38.08594 -9.844,-5.705 -20.47782,-8.96321 -31.75782,-10.19921 -1.49,-0.163 -2.98837,-0.25157 -4.48437,-0.35157 -0.979,-0.065 -1.43047,-0.55306 -1.48047,-1.53906 -0.217,-4.32 -0.49431,-8.63703 -0.69531,-12.95703 -0.16,-3.459 -0.211,-6.92286 -0.375,-10.38086 -0.062,-1.312 0.32704,-1.88812 1.74804,-1.82812 z m -6.17578,0.004 c 1.36469,-0.0429 1.51168,0.32156 1.43555,2.13281 -0.32,7.607 -0.69902,15.21041 -1.04102,22.81641 -0.05,1.099 -0.50325,1.6823 -1.65625,1.7793 -4.196,0.351 -8.38948,0.71689 -12.52148,1.58789 -14.342,3.022 -26.9285,9.46134 -37.8125,19.27734 -11.394,10.276 -19.16858,22.83203 -23.64258,37.45703 -1.557,5.091 -2.53764,10.30796 -2.93164,15.62696 -0.043,0.575 -0.1955,1.14675 -0.1875,1.71875 0.023,1.559 -0.84981,2.08484 -2.25781,2.21484 -4.94,0.457 -9.8755,0.96122 -14.8125,1.44922 -2.239,0.221 -4.47675,0.48201 -6.71875,0.66601 -2.502,0.205 -2.67497,0.0162 -2.66797,-2.46484 0.001,-0.288 0,-0.57623 0,-0.86523 0.585,-13.163 3.4005,-25.82313 8.5625,-37.95313 5.589,-13.133 13.45945,-24.74897 23.68945,-34.66797 16.847,-16.335 36.9445,-26.25806 60.1875,-29.66406 3.874,-0.568 7.80489,-0.75927 11.71289,-1.07227 0.2475,-0.0197 0.46716,-0.0329 0.66211,-0.0391 z m -1.16015,33.86328 c 1.20212,0.0292 0.62729,1.56264 0.52929,2.66602 -1.191,13.298 -3.26518,26.41475 -7.24218,39.21875 -3.547,11.421 -11.24369,18.48473 -22.17969,22.55273 -7.105,2.642 -14.5167,3.72814 -21.9707,4.61914 -5.153,0.616 -10.33029,1.01871 -15.48829,1.59571 -3.36099,0.376 -3.35059,0.31354 -3.05859,-3.06446 0.682,-7.89 2.43027,-15.52375 5.69727,-22.71875 10.766,-23.708 28.77759,-38.47901 54.43359,-43.66601 1.355,-0.273 2.72666,-0.47821 4.09766,-0.65821 1.313,-0.17199 2.63578,-0.26898 4.55078,-0.45898 0.25087,-0.0629 0.45913,-0.0901 0.63086,-0.0859 z m 9.52148,0.17383 c 12.082,0.899 23.34364,4.40641 33.55664,10.94141 18.218,11.656 29.33603,28.21958 33.58203,49.39258 0.565,2.818 0.74358,5.7134 1.14258,8.5664 0.23,1.646 -0.69865,1.83589 -1.97265,1.71289 -3.733,-0.359 -7.47127,-0.65336 -11.19727,-1.06836 -6.308,-0.702 -12.62594,-1.388 -18.83594,-2.75 -8.292,-1.819 -16.02109,-4.83847 -22.37109,-10.73047 -5.167,-4.795 -7.58605,-11.05942 -9.49805,-17.60742 -3.116,-10.672 -4.84564,-21.59572 -5.93164,-32.63672 -0.124,-1.262 -0.23928,-2.52706 -0.36328,-3.78906 -0.205,-2.076 -0.20533,-2.07525 1.88867,-2.03125 z m 101.42774,74.82617 c 1.03467,0.0177 1.03551,0.49522 0.97851,2.38672 -0.019,0.635 -0.002,1.27178 -0.002,2.30078 -0.599,12.541 -3.40872,24.96719 -8.51172,36.86719 -6.047,14.104 -14.62288,26.4617 -25.92188,36.8457 -15.43599,14.187 -33.50729,23.15583 -54.15429,26.92383 -5.064,0.924 -10.17888,1.29711 -15.29688,1.66211 -2.403,0.172 -2.52183,0.0591 -2.42383,-2.29492 0.31701,-7.607 0.70702,-15.21041 1.04102,-22.81641 0.053,-1.206 0.53006,-1.70353 1.78906,-1.76953 17.309,-0.911 32.80582,-6.73637 46.38282,-17.48437 12.11,-9.586 20.70423,-21.75449 25.99023,-36.27149 2.447,-6.719 3.93445,-13.62581 4.43945,-20.75781 0.218,-3.073 0.38699,-3.14545 3.45899,-3.43945 6.941,-0.664 13.8794,-1.35674 20.8164,-2.05274 0.61075,-0.0613 1.06918,-0.1055 1.41407,-0.0996 z m -213.27539,0.0449 c 0.14468,-0.003 0.3012,0.003 0.4707,0.0195 5.161,0.517 10.32633,0.98009 15.48633,1.49609 2.522,0.252 5.03264,0.6287 7.55664,0.8457 1.102,0.094 1.47331,0.59714 1.57031,1.61914 0.392,4.137 0.81137,8.26994 1.73437,12.33594 3.239,14.272 9.70358,26.853 19.64258,37.625 11.8,12.789 26.23828,20.93959 43.23828,24.55859 4.067,0.866 8.18766,1.41665 12.34766,1.55665 1.241,0.042 1.77698,0.51442 1.83398,1.73242 0.34501,7.374 0.71479,14.74828 1.05079,21.61328 0.016,3.705 0.0147,3.70811 -2.73829,3.53711 -9.009,-0.552 -17.8905,-1.8345 -26.5625,-4.4375 -14.237,-4.273 -27.06651,-11.13111 -38.47851,-20.66211 -11.558,-9.653 -20.61936,-21.27647 -27.31836,-34.73047 -5.873,-11.794 -9.44219,-24.28439 -10.74219,-37.40039 -0.261,-2.637 -0.2595,-5.29931 -0.4375,-7.94531 -0.0805,-1.204 0.33289,-1.73931 1.34571,-1.76368 z m 33.85156,2.10547 c 0.0642,0.002 0.13262,0.006 0.20312,0.0137 11.112,1.182 22.31213,1.74918 33.20313,4.49218 7.481,1.884 14.38973,4.96869 20.05273,10.42969 5.018,4.84 7.43031,11.03539 9.32031,17.52539 3.109,10.674 4.83607,21.59572 5.91407,32.63672 0.107,1.09 0.25962,2.17472 0.39062,3.26172 -0.025,0.003 -0.0512,0.005 -0.0762,0.008 0.038,0.402 0.0301,0.81708 0.12305,1.20508 0.304,1.273 -0.47991,1.32034 -1.37891,1.27734 -3.868,-0.186 -7.67908,-0.77314 -11.45508,-1.61914 -14.088,-3.156 -26.15251,-10.02776 -36.22851,-20.25976 -11.454,-11.632 -18.31464,-25.62889 -20.55664,-41.83789 -0.26,-1.883 -0.44149,-3.77602 -0.64649,-5.66602 -0.10031,-0.91781 0.17111,-1.49694 1.13477,-1.4668 z m 144.98047,0.01 c 1.09424,0.001 1.42032,0.54497 1.31445,1.82422 -1.571,18.946 -8.89598,35.26204 -22.58398,48.49804 -11.594,11.211 -25.48949,17.93729 -41.52149,20.11329 -1.427,0.193 -2.86645,0.28662 -3.93945,0.39062 -2.284,0.033 -2.31638,0.0296 -2.10938,-2.48242 0.775,-9.437 2.09555,-18.79616 4.18555,-28.03516 0.866,-3.829 2.01553,-7.58661 3.14453,-11.34961 3.393,-11.314 11.10424,-18.32336 21.86524,-22.44336 6.471,-2.477 13.22487,-3.62445 20.04687,-4.43945 6.351,-0.76 12.72408,-1.32297 19.08008,-2.04297 0.18862,-0.0214 0.36126,-0.0334 0.51758,-0.0332 z"
   style="fill:#ffffff"
   id="path243" /><path
   d="m 202.81641,371.61719 c -8.281,0.997 -16.20513,4.15878 -23.07813,9.80078 -2.235,1.835 -4.16969,3.97647 -5.67969,6.48047 -0.664,1.1 -0.48687,1.65804 0.82813,1.87304 1.147,0.189 2.29231,0.30199 3.44531,0.20899 10.796,-0.868 19.73961,-5.58024 27.22461,-13.24024 0.983,-1.006 2.26463,-2.216 1.64063,-3.75 -0.658,-1.618 -2.43186,-1.18004 -4.38086,-1.37304 z"
   style="fill:#ffffff"
   id="path242" /><path
   d="m 296.79883,371.70117 c -0.347,0 -0.69506,-0.0171 -1.03906,0.004 -1.098,0.067 -2.32893,0.0368 -2.91993,1.13476 -0.619,1.15 0.24933,2.08847 0.86133,2.98047 0.389,0.567 0.86171,1.08417 1.3457,1.57617 4.482,4.558 9.77275,7.90293 15.71875,10.16993 4.50401,1.717 9.14307,2.88698 14.03907,2.20898 1.861,-0.257 1.97631,-0.54169 0.94531,-2.17969 -2.287,-3.633 -5.38022,-6.46225 -8.94922,-8.78125 -6.096,-3.961 -12.72995,-6.44528 -20.00195,-7.11328 z"
   style="fill:#ffffff"
   id="path241" /><path
   d="m 184.69922,365.69141 c -4.426,0.102 -9.0613,0.99429 -13.5293,2.65429 -5.263,1.957 -10.01314,4.73211 -13.74414,9.03711 -1.167,1.347 -1.07481,1.74192 0.61719,2.16992 2.243,0.568 4.53565,0.92269 6.84765,0.80469 8.57701,-0.437 16.35533,-3.21706 23.36133,-8.16406 1.228,-0.867 2.36522,-1.85481 3.19922,-3.13281 0.909,-1.392 0.65113,-2.20125 -0.92187,-2.78125 -1.771,-0.653 -3.63208,-0.58689 -5.83008,-0.58789 z"
   style="fill:#ffffff"
   id="path240" /><path
   d="m 313.35547,365.75586 c -0.54875,-0.009 -1.09522,-0.002 -1.63672,0.0566 -1.359,0.147 -3.06483,0.17325 -3.54883,1.65625 -0.461,1.415 0.91438,2.39639 1.85938,3.27539 2.691,2.504 5.87284,4.28328 9.21484,5.73828 7.04,3.065 14.2943,4.84819 22.0293,3.24219 0.714,-0.149 1.69065,-0.10752 1.97265,-0.85352 0.338,-0.895 -0.5999,-1.41084 -1.1289,-1.96484 -7.38,-7.736 -16.80424,-10.55014 -27.11524,-11.11914 -0.5475,0 -1.09773,-0.0226 -1.64648,-0.0312 z"
   style="fill:#ffffff"
   id="path239" /><path
   d="m 167.36328,357.44141 c -4.054,-0.17 -7.92856,0.38582 -11.72656,1.42382 -4.726,1.29 -9.10695,3.26911 -12.75195,6.66211 -0.945,0.879 -1.00355,1.49641 0.31445,1.94141 1.146,0.387 2.27322,0.87805 3.44922,1.12305 10.234,2.129 19.78001,0.13812 28.79101,-4.92188 0.913,-0.513 1.6698,-1.23125 2.3418,-2.03125 0.74,-0.882 0.62784,-1.65137 -0.28516,-2.35937 -0.753,-0.583 -1.62262,-0.87252 -2.51562,-1.10352 -2.532,-0.654 -5.10819,-0.87437 -7.61719,-0.73437 z"
   style="fill:#ffffff"
   id="path238" /><path
   d="m 334.67187,357.41992 c -1.95303,-0.0715 -3.92485,-0.0307 -5.9121,0.10352 -1.94,0.131 -3.92074,0.41976 -5.67774,1.38476 -1.632,0.896 -1.74028,1.76377 -0.48828,3.13477 0.947,1.037 2.10489,1.78669 3.33789,2.42969 5.758,3.005 11.87723,4.65306 18.36523,4.91406 4.626,0.229 8.65204,-0.35678 12.20704,-1.80078 1.708,-0.693 1.75965,-0.94069 0.47265,-2.17969 -1.593,-1.533 -3.42109,-2.74295 -5.37109,-3.75195 -5.39025,-2.78925 -11.0745,-4.01997 -16.9336,-4.23438 z"
   style="fill:#ffffff"
   id="path237" /><path
   d="m 148.21875,346.99219 c -2.712,-0.134 -5.46159,0.11317 -8.18359,0.70117 -3.7,0.798 -7.20452,2.0608 -10.35352,4.2168 -1.077,0.737 -1.1265,1.37781 0.0625,2.00781 0.866,0.459 1.70833,0.97865 2.61133,1.34765 6.249,2.555 12.72833,3.09613 19.36133,2.07813 4.002,-0.614 7.98357,-1.34042 11.51757,-3.48242 2.501,-1.516 2.44444,-2.83141 -0.10156,-4.19141 -1.126,-0.601 -2.30901,-1.05881 -3.54101,-1.38281 -3.705,-0.976 -7.46905,-1.44392 -11.37305,-1.29492 z"
   style="fill:#ffffff"
   id="path236" /><path
   d="m 352.37695,346.92383 c -1.91211,-0.014 -3.8422,0.082 -5.7832,0.25195 -2.873,0.252 -5.7392,0.70863 -8.4082,1.89063 -1.287,0.569 -3.08907,0.93579 -3.16407,2.59179 -0.076,1.662 1.65974,2.21708 2.92774,2.83008 5.15,2.49 10.71989,3.00542 15.46289,3.35742 5.9,0.005 11.60687,-1.17954 15.29687,-3.06054 0.9,-0.459 2.27924,-0.74897 2.36524,-1.79297 0.093,-1.128 -1.31388,-1.4688 -2.17188,-1.9668 -5.21475,-3.02325 -10.78906,-4.05942 -16.52539,-4.10156 z"
   style="fill:#ffffff"
   id="path235" /><path
   d="m 131.0918,334.11328 c -4.506,-0.04 -8.85589,0.6798 -12.96289,2.5918 -1.755,0.818 -1.80633,1.25217 -0.23633,2.45117 0.914,0.697 1.87762,1.35258 2.89062,1.89258 7.68,4.09 15.87,4.98006 24.375,3.78906 1.662,-0.232 3.30242,-0.59733 4.85742,-1.23633 1.003,-0.412 2.2908,-0.76522 2.4668,-1.94922 0.195,-1.312 -1.08714,-1.92775 -1.99414,-2.59375 -0.691,-0.508 -1.46981,-0.92153 -2.25781,-1.26953 -5.457,-2.41 -11.18667,-3.56678 -17.13867,-3.67578 z"
   style="fill:#ffffff"
   id="path234" /><path
   d="m 369.22461,334.11719 c -5.968,0.001 -11.67692,1.24892 -17.16992,3.54492 -1.392,0.582 -2.70753,1.30616 -3.76953,2.41016 -1.213,1.26 -1.13068,1.88732 0.36132,2.86132 1.082,0.706 2.30507,1.06629 3.53907,1.36328 4.883,1.175 9.8252,1.36421 14.7832,0.65821 5.494,-0.782 10.71355,-2.36417 15.18555,-5.82617 1.549,-1.199 1.48145,-1.61432 -0.31055,-2.44532 -4.001,-1.855 -8.23414,-2.5774 -12.61914,-2.5664 z"
   style="fill:#ffffff"
   id="path233" /><path
   d="m 115.32617,319.33789 c -2.32542,0.10889 -4.62709,0.54552 -6.87109,1.29102 -1.15,0.382 -1.37056,0.92026 -0.47656,1.82226 1.098,1.108 2.21309,2.1888 3.49609,3.0918 6.723,4.734 14.35458,6.37567 22.39258,6.63867 2.334,0.046 4.64683,-0.0508 6.79883,-1.04883 1.53,-0.711 1.69223,-1.5537 0.61523,-2.8457 -1.085,-1.302 -2.4453,-2.27619 -3.9043,-3.11719 -6.106,-3.521 -12.68875,-5.50008 -19.71875,-5.83008 -0.77925,-0.0367 -1.55689,-0.0383 -2.33203,-0.002 z"
   style="fill:#ffffff"
   id="path232" /><path
   d="m 382.35937,319.33789 c -6.01299,0.24 -11.72481,1.81269 -17.13281,4.42969 -2.182,1.056 -4.30634,2.24776 -6.02734,4.00976 -1.772,1.815 -1.5035,2.87946 0.9375,3.68946 1.943,0.645 3.95519,0.77936 5.99219,0.69336 4.771,-0.014 9.4265,-0.78336 13.9375,-2.31836 4.48,-1.527 8.53551,-3.7841 11.85351,-7.2461 0.997,-1.041 0.83356,-1.58553 -0.52344,-2.01953 -2.946,-0.943 -5.9781,-1.36028 -9.03711,-1.23828 z"
   style="fill:#ffffff"
   id="path231" /><path
   d="m 394.82617,302.72461 c -0.46123,-0.0136 -0.92462,-0.003 -1.39062,0.0391 -4.229,0.386 -8.32994,1.31083 -12.21094,3.04883 -4.607,2.064 -9.00166,4.47767 -12.47266,8.26367 -0.74,0.807 -1.69075,1.6958 -1.34375,2.8418 0.373,1.233 1.77469,1.08975 2.80469,1.34375 0.551,0.136 1.1443,0.10048 1.7793,0.14648 6.191,-0.422 12.11643,-2.01722 17.64843,-4.94922 3.915,-2.075 7.36954,-4.73818 10.01954,-8.36718 0.824,-1.128 0.5162,-1.69005 -0.7168,-1.87305 -1.36725,-0.20325 -2.73349,-0.45331 -4.11719,-0.49414 z"
   style="fill:#ffffff"
   id="path230" /><path
   d="m 105.79688,302.83594 c -0.86207,-0.003 -1.73299,0.0348 -2.61524,0.11718 -1.118,0.104 -2.75334,-0.19937 -3.15234,0.89063 -0.410003,1.122 0.93151,2.10489 1.72851,2.96289 7.044,7.583 16.14416,10.56539 26.03516,11.65039 0.886,-0.103 1.69447,-0.14187 2.48047,-0.29687 2.833,-0.557 3.15881,-1.56583 1.25781,-3.79883 -0.187,-0.219 -0.39584,-0.41981 -0.58984,-0.63281 -2.331,-2.558 -5.22061,-4.37529 -8.22461,-5.98829 -5.32788,-2.86212 -10.88547,-4.88455 -16.91992,-4.90429 z"
   style="fill:#ffffff"
   id="path229" /><path
   d="m 97.068359,284.63086 c -0.346,0 -0.691109,-0.0151 -1.037109,0.004 -1.687,0.085 -1.933813,0.52634 -1.132813,2.02734 0.135001,0.254 0.291266,0.49823 0.447266,0.74023 5.659997,8.773 14.117407,13.28899 23.941407,15.70899 1.286,0.317 2.61241,0.5199 3.94141,0.2539 1.529,-0.306 1.94248,-1.03042 1.39648,-2.48242 -0.452,-1.202 -1.22027,-2.21206 -2.07227,-3.16406 -3.025,-3.381 -6.51264,-6.2107 -10.43164,-8.4707 -4.652,-2.684 -9.62873,-4.40319 -15.052731,-4.61719 z"
   style="fill:#ffffff"
   id="path228" /><path
   d="m 402.99805,284.625 c -10.916,0.871 -19.51208,6.07234 -26.45508,14.27734 -0.856,1.011 -2.00375,2.34108 -1.09375,3.70508 0.854,1.281 2.51919,0.9591 3.86719,0.7461 5.428,-0.856 10.41092,-2.94204 15.04492,-5.83204 4.308,-2.686 7.96578,-6.07071 10.55078,-10.51171 1.117,-1.919 0.87247,-2.34777 -1.39453,-2.38477 -0.173,-0.002 -0.34653,0 -0.51953,0 z"
   style="fill:#ffffff"
   id="path227" /><path
   d="m 407.24609,266.4375 c -0.18152,-0.002 -0.38611,0.003 -0.61523,0.0156 -0.682,0.11 -1.37197,0.17994 -2.04297,0.33594 -8.363,1.937 -14.7027,6.94466 -20.0957,13.34766 -1.415,1.68 -2.67897,3.48108 -3.41797,5.58008 -0.725,2.062 0.0182,2.98143 2.20117,2.77343 0.342,-0.032 0.68058,-0.12126 1.01758,-0.19726 4.598,-1.035 8.60598,-3.32422 12.33398,-6.07422 4.938,-3.643 9.10588,-7.99222 11.42188,-13.82422 0.60025,-1.51112 0.46791,-1.94012 -0.80274,-1.95703 z"
   style="fill:#ffffff"
   id="path226" /><path
   d="m 92.730469,266.43945 c -1.181865,-0.008 -1.261782,0.3275 -0.816407,1.71875 0.105001,0.329 0.223,0.6578 0.375,0.9668 4.756,9.682 12.671408,15.61133 22.691408,18.98633 1.27,0.428 2.89744,1.05601 3.89844,-0.20899 1.004,-1.269 -0.0723,-2.65375 -0.69727,-3.84375 -1.964,-3.739 -4.89948,-6.71217 -8.02148,-9.45117 -4.847,-4.252 -10.326519,-7.32053 -16.853519,-8.14453 -0.2155,-0.0131 -0.407334,-0.0223 -0.576172,-0.0234 z"
   style="fill:#ffffff"
   id="path225" /><path
   d="m 92.169922,248.22266 c -0.05022,-0.002 -0.0996,-6.4e-4 -0.148438,0.002 -0.260468,0.0138 -0.500328,0.0942 -0.705078,0.27148 -1.004,0.87 -0.104031,2.30958 0.292969,3.39258 3.567,9.741 10.455905,16.396 19.628905,20.875 0.66,0.323 1.43006,0.45785 2.16406,0.58985 1.265,0.227 1.81814,-0.43204 1.86914,-1.83204 -0.057,-0.268 -0.13195,-0.72301 -0.25195,-1.16601 -0.886,-3.296 -2.70745,-6.10455 -4.68945,-8.81055 -4.107,-5.608 -9.14863,-10.07158 -15.765627,-12.51758 -0.741797,-0.27422 -1.641173,-0.77718 -2.394531,-0.80468 z"
   style="fill:#ffffff"
   id="path224" /><path
   d="m 408.26562,248.27539 c -0.13665,0.003 -0.29415,0.0307 -0.47265,0.084 -0.496,0.14801 -1.01891,0.21563 -1.50391,0.39063 -10.2,3.681 -16.77187,11.06814 -21.04687,20.74414 -0.463,1.05 -1.07583,2.43569 -0.0488,3.42969 1.088,1.053 2.47626,0.36103 3.57226,-0.16797 9.25301,-4.469 16.12518,-11.20872 19.70118,-21.01172 0.275,-0.754 0.41808,-1.55683 0.58007,-2.17383 0.0252,-0.86125 -0.18906,-1.30928 -0.78125,-1.29492 z"
   style="fill:#ffffff"
   id="path223" /><path
   d="m 406.92383,229.27539 c -0.29694,-0.007 -0.69024,0.10438 -1.20117,0.32031 -4.124,1.741 -7.50789,4.47888 -10.33789,7.92188 -3.97,4.829 -7.09944,10.09678 -8.39844,16.30078 -0.218,1.04 -0.3163,2.17662 0.5957,2.89062 0.842,0.659 1.77052,0.0437 2.60352,-0.32226 1.221,-0.536 2.332,-1.25775 3.375,-2.09375 2.717,-2.177 5.1602,-4.63086 7.2832,-7.38086 3.624,-4.694 6.16433,-9.87536 6.86133,-15.69336 0.0577,-1.33581 -0.12798,-1.92815 -0.78125,-1.94336 z"
   style="fill:#ffffff"
   id="path222" /><path
   d="m 93.060547,229.26172 c -0.59342,0.0204 -0.765375,0.57237 -0.757813,1.85937 0.028,0.202 0.07416,0.66228 0.160157,1.11328 1.907,10.06 7.747269,17.46104 15.822269,23.33204 0.835,0.607 1.80231,1.02587 2.82031,1.29687 1.157,0.308 1.81489,-0.17697 1.96289,-1.29297 0.081,-0.614 0.0362,-1.27281 -0.0898,-1.88281 -1.257,-6.094 -4.3528,-11.25763 -8.2168,-16.01563 -2.885,-3.552 -6.348423,-6.37595 -10.607423,-8.12695 -0.466563,-0.19187 -0.824014,-0.29247 -1.09375,-0.2832 z"
   style="fill:#ffffff"
   id="path221" /><path
   d="m 403.49805,210.70898 c -0.54051,0.0367 -1.00748,0.55963 -1.4668,0.84375 -3.716,2.296 -6.56002,5.47493 -8.79102,9.16993 -3.162,5.237 -5.56856,10.76829 -5.72656,17.02929 -0.025,0.971 -0.14742,2.14119 0.89258,2.61719 0.979,0.448 1.89041,-0.25741 2.69141,-0.81641 2.203,-1.538 3.96917,-3.52739 5.57617,-5.65039 4.478,-5.916 7.62187,-12.37312 7.92187,-19.95312 0,-0.347 0.0181,-0.69502 -0.004,-1.04102 -0.045,-0.734 0.1725,-1.64936 -0.5625,-2.06836 -0.14588,-0.0831 -0.28635,-0.12315 -0.42188,-0.13086 -0.0367,-0.002 -0.0733,-0.002 -0.10937,0 z"
   style="fill:#ffffff"
   id="path220" /><path
   d="m 96.544922,210.74023 c -0.149134,0.001 -0.299297,0.0336 -0.451172,0.10157 -1.174,0.526 -0.497844,1.96625 -0.714844,3.03125 0.257,6.15 2.39361,11.69145 5.724614,16.81445 2.242,3.449 4.66201,6.77617 8.16601,9.07617 2.158,1.417 3.15928,0.82391 3.23828,-1.74609 0.134,-4.337 -1.32967,-8.28711 -3.01367,-12.16211 -2.388,-5.495 -5.75136,-10.27116 -10.693359,-13.78516 -0.687656,-0.48769 -1.450537,-1.33764 -2.255859,-1.33008 z"
   style="fill:#ffffff"
   id="path219" /><path
   d="m 101.33984,190.76953 c -0.0972,0.005 -0.19434,0.0253 -0.29296,0.0606 -1.205005,0.43 -1.01652,2.16839 -1.103521,3.40039 -0.696,9.816 2.960441,18.14215 8.898441,25.66015 0.419,0.53101 1.00436,0.95075 1.56836,1.34375 1.648,1.14801 2.36859,0.85015 2.93359,-1.13085 0.324,-1.135 0.15183,-2.29246 0.17383,-3.43946 0,-0.807 0.0433,-1.61597 -0.0117,-2.41797 -0.052,-0.744 -0.18727,-1.4857 -0.32227,-2.2207 -1.337,-7.28 -3.92239,-13.96845 -9.27539,-19.31445 -0.73062,-0.72975 -1.56771,-1.90991 -2.4707,-1.94141 -0.0323,-0.001 -0.0653,-0.002 -0.0977,0 z"
   style="fill:#ffffff"
   id="path218" /><path
   d="m 398.55664,190.77344 c -0.94695,0.0331 -1.83484,1.2789 -2.57422,2.0664 -6.617,7.05 -9.46067,15.55171 -9.51367,25.09571 -0.008,1.434 -0.17395,3.24678 1.37305,3.80078 1.423,0.51 2.55348,-0.89446 3.39648,-1.93946 5.36,-6.64999 8.66933,-14.13225 8.98633,-22.53125 -0.05,-1.125 -0.0457,-1.99546 -0.13672,-2.85546 -0.138,-1.293 0.12695,-3.11832 -1.12305,-3.57032 -0.1375,-0.0496 -0.27292,-0.0711 -0.4082,-0.0664 z"
   style="fill:#ffffff"
   id="path217" /><path
   d="m 109.46289,173.01758 c -0.0926,-9.8e-4 -0.1893,0.011 -0.29101,0.0371 -1.00001,0.256 -1.0666,1.69092 -1.3086,2.66992 -1.485,5.995 -0.92672,11.913 0.86328,17.75 1.155,3.766 2.48822,7.47108 5.19922,10.45508 1.677,1.846 2.65495,1.60103 3.50195,-0.79297 0.763,-2.158 0.73382,-4.42517 0.88282,-6.82617 -0.379,-7.645 -1.84958,-15.09068 -6.89258,-21.38868 -0.56641,-0.70687 -1.05985,-1.89479 -1.95508,-1.90429 z"
   style="fill:#ffffff"
   id="path216" /><path
   d="m 390.63867,172.97266 c -0.30411,0.0193 -0.64936,0.27353 -1.04883,0.74023 -1.089,1.274 -2.13209,2.57448 -2.99609,4.02148 -3.381,5.666 -4.63964,11.89986 -4.80664,18.38086 -0.068,2.634 -0.0585,5.33955 1.14453,7.81055 0.724,1.487 1.42997,1.597 2.66797,0.5 0.781,-0.692 1.44652,-1.48853 1.97851,-2.39453 3.496,-5.951 5.27444,-12.37762 5.39844,-19.26563 0.073,-2.982 -0.35451,-5.87064 -1.35351,-8.68164 -0.26297,-0.7379 -0.56281,-1.09677 -0.92383,-1.11132 -0.0199,-8.1e-4 -0.0403,-0.001 -0.0606,0 z"
   style="fill:#ffffff"
   id="path215" /><path
   d="m 380.50391,156.88672 c -0.39363,-0.0213 -0.82589,0.45361 -1.46289,1.41211 -3.481,5.24 -4.69518,11.09211 -4.57618,17.28711 0,0.981 -0.0623,1.96736 0.0117,2.94336 0.241,3.173 0.60914,6.32998 2.11914,9.20898 1.052,2.007 2.07736,2.06156 3.44336,0.22656 0.835,-1.121 1.398,-2.3844 1.875,-3.6914 1.174,-3.215 1.89113,-6.5376 2.20313,-9.9336 0.503,-5.48 -0.0158,-10.83467 -2.38477,-15.88867 -0.4805,-1.0255 -0.83489,-1.5432 -1.22851,-1.56445 z"
   style="fill:#ffffff"
   id="path214" /><path
   d="m 119.65234,156.94727 c -0.0534,-5.9e-4 -0.10978,0.003 -0.16796,0.0117 -0.84701,0.122 -1.04801,1.14914 -1.375,1.86914 -2.07701,4.57801 -2.66074,9.433 -2.30274,14.375 0.347,4.793 1.24674,9.49874 3.55274,13.80274 0.53499,0.999 1.12678,2.2687 2.42578,2.2207 1.359,-0.05 1.67965,-1.46014 2.09765,-2.49414 1.431,-3.539 1.74241,-7.27037 1.69141,-10.85937 0.119,-6.321 -1.07113,-12.1218 -4.45313,-17.3418 -0.39,-0.60188 -0.66824,-1.57515 -1.46875,-1.58398 z"
   style="fill:#ffffff"
   id="path213" /><path
   d="m 368.24219,141.26758 c -0.424,0.0162 -0.80147,0.58229 -1.29297,1.71679 -4.125,9.52301 -3.03445,18.89038 1.06055,28.10938 0.459,1.033 1.15487,2.27966 2.42187,2.22266 1.393,-0.062 1.81003,-1.49443 2.20703,-2.60743 1.253,-3.512 1.67808,-7.1607 1.58008,-10.2207 0.072,-6.716 -1.11534,-12.45576 -4.40234,-17.63476 -0.6785,-1.0685 -1.15022,-1.60219 -1.57422,-1.58594 z"
   style="fill:#ffffff"
   id="path212" /><path
   d="m 131.72461,141.37305 c -0.926,-0.024 -1.29547,1.05548 -1.73047,1.77148 -3.125,5.139 -4.26022,10.78569 -4.19922,17.42969 -0.063,3.202 0.34955,7.03064 1.81055,10.68164 0.361,0.901 0.79467,1.97826 1.88867,2.07226 1.092,0.094 1.66917,-0.88575 2.20117,-1.71875 1.683,-2.633 2.39516,-5.61728 3.03516,-8.61328 1.433,-6.704 1.33123,-13.30859 -1.50977,-19.68359 -0.336,-0.754 -0.51409,-1.91445 -1.49609,-1.93945 z"
   style="fill:#ffffff"
   id="path211" /><path
   d="m 354.01562,126.78125 c -0.35858,0.0155 -0.65254,0.364 -0.92773,1.09766 -1.032,2.752 -1.36514,5.58767 -1.24414,8.38867 -0.047,1.959 0.0229,3.801 0.37695,5.625 0.975,5.028 2.50989,9.84675 5.46289,14.09375 0.697,1.001 1.47697,2.40075 2.91797,2.09375 1.432,-0.304 1.5995,-1.86194 1.8125,-3.08594 0.823,-4.72 0.50494,-9.41345 -0.53906,-14.06445 -1.13,-5.032 -3.10252,-9.65127 -6.72852,-13.44727 -0.44812,-0.46875 -0.81446,-0.71485 -1.13086,-0.70117 z"
   style="fill:#ffffff"
   id="path210" /><path
   d="m 146.03516,126.73633 c -0.34534,0.0145 -0.78479,0.37205 -1.4336,1.04492 -0.559,0.579 -1.09178,1.19647 -1.55078,1.85547 -4.424,6.36 -6.01084,13.50958 -5.83984,21.14258 0.047,2.081 0.0528,4.17147 0.96484,6.10547 0.715,1.515 1.57799,1.68589 2.83399,0.58789 0.965,-0.843 1.72398,-1.86233 2.33398,-2.98633 3.079,-5.672 4.93256,-11.67041 4.85156,-18.81641 0.117,-2.049 -0.20701,-4.67165 -1.04101,-7.22265 -0.38532,-1.18069 -0.67514,-1.72961 -1.11914,-1.71094 z"
   style="fill:#ffffff"
   id="path209" /><path
   d="m 337.77344,115.35352 c -0.40071,-0.003 -0.62405,0.4171 -0.83008,1.29882 -0.357,1.527 -0.43911,3.0753 -0.41211,4.6543 0.279,8.303 3.3067,15.57319 8.4707,21.99219 0.834,1.036 1.94263,2.45189 3.39063,1.96289 1.572,-0.53 1.45075,-2.34877 1.46875,-3.75977 0.084,-6.556 -1.707,-12.63607 -4.875,-18.33007 -1.557,-2.798 -3.56585,-5.24447 -6.08985,-7.23047 -0.49156,-0.38716 -0.84887,-0.58605 -1.12304,-0.58789 z"
   style="fill:#ffffff"
   id="path208" /><path
   d="m 162.04687,115.40039 c -0.72463,0.008 -1.28528,0.78284 -1.8164,1.29297 -7.099,6.812 -9.87131,15.39151 -10.07031,24.97851 -0.027,1.29701 -0.0516,2.9471 1.35742,3.4961 1.529,0.596 2.6075,-0.79455 3.4375,-1.81055 5.227,-6.398 8.20326,-13.69858 8.44726,-22.01758 0,-0.981 0.006,-1.96236 -0.004,-2.94336 -0.003,-0.229 -0.0246,-0.47059 -0.10157,-0.68359 -0.282,-0.784 0.0173,-1.98358 -0.92968,-2.26758 -0.11063,-0.0331 -0.2168,-0.0461 -0.32032,-0.0449 z"
   style="fill:#ffffff"
   id="path207" /><path
   d="m 326.42773,69.304687 c -0.39261,0.01553 -0.69441,0.269532 -0.92773,0.785157 -0.711,1.572 -1.43841,3.138406 -2.19141,4.691406 -0.384,0.794 -0.16115,1.333453 0.58985,1.689453 4.576,2.171 9.15333,4.340094 13.73633,6.496094 0.408,0.192 0.93325,0.451719 1.28125,0.01172 0.898,-1.136 1.44517,-2.463266 1.95117,-3.947266 -0.97,-1.637 -1.75499,-3.6135 -3.45899,-4.5625 -3.312,-1.845 -6.82014,-3.332562 -10.24414,-4.976563 -0.24156,-0.11625 -0.45999,-0.17966 -0.65625,-0.1875 -0.027,-0.0011 -0.0539,-0.001 -0.0801,0 z"
   style="fill:#ffffff"
   id="path206" /><path
   d="m 331.84375,58.826172 c -0.94319,-0.0027 -1.37733,0.891016 -2.44727,3.08789 -0.177,0.363 -0.32025,0.747844 -0.53125,1.089844 -0.647,1.048 -0.31842,1.640813 0.76758,2.132813 3.102,1.405 6.1671,2.88875 9.2461,4.34375 0.575,0.271 1.14154,0.56564 1.43554,0.55664 1.514,-0.155 2.67474,-0.191203 3.80274,-0.408203 1.746,-0.338 2.03892,-1.966297 2.41992,-3.279297 0.33,-1.136 -0.98345,-1.241843 -1.68945,-1.589843 -3.313,-1.634 -6.65429,-3.207829 -9.98829,-4.798829 -1.48728,-0.710125 -2.37028,-1.132885 -3.01562,-1.134765 z"
   style="fill:#ffffff"
   id="path205" /><path
   d="m 186.77734,427.69922 c -0.64917,0.0186 -0.96162,0.47411 -1.20312,1.28711 -1.51,5.088 -3.05795,10.16633 -4.62695,15.23633 -0.313,1.011 -0.17993,1.5732 0.95507,1.9082 5.089,1.504 10.16052,3.06948 15.22852,4.64648 1.061,0.331 1.6012,0.0318 1.9082,-1.0332 0.784,-2.718 1.63599,-5.41605 2.45899,-8.12305 0.772,-2.541 1.54473,-5.08207 2.30273,-7.58007 0.283,-1.186 -0.56075,-1.42016 -1.34375,-1.66016 -4.969,-1.518 -9.9492,-2.99974 -14.9082,-4.55274 -0.30125,-0.0942 -0.5551,-0.1351 -0.77149,-0.1289 z"
   style="fill:#ffffff"
   id="path204" /><path
   d="m 221.48047,44.355469 c -0.41506,0.0064 -0.86105,0.04152 -1.3418,0.103515 -3.203,0.413 -6.37936,1.04136 -9.56836,1.56836 -4.014,0.664 -3.52568,0.347015 -2.92969,4.041015 0.716,4.439 1.43532,8.876594 2.19532,13.308594 0.138,0.808 0.19562,1.850094 1.51562,1.621094 4.377,-0.759 8.81124,-1.22361 13.11524,-2.34961 2.257,-0.59 3.38495,-2.262062 3.37695,-4.539062 -0.009,-0.107 -0.0101,-0.281172 -0.0371,-0.451172 -0.473,-2.902 -0.88945,-5.816125 -1.43945,-8.703125 -0.6265,-3.28825 -1.98134,-4.644125 -4.88672,-4.599609 z"
   style="fill:#ffffff"
   id="path203" /><path
   d="m 166.34375,61.652344 c -0.0492,0.0028 -0.10105,0.01503 -0.1543,0.03516 -0.521,0.197 -0.42764,0.764938 -0.43164,1.210937 -0.015,1.784001 -0.006,3.568125 -0.006,5.453125 -0.069,1.453001 -0.15984,3.003688 -0.21484,4.554688 -0.07,2.056 0.29981,2.337922 2.13281,1.544922 2.429,-1.051 4.81895,-2.192422 7.25195,-3.232422 1.43201,-0.612 1.18408,-1.228313 0.20508,-2.070313 -2.661,-2.288 -5.28668,-4.615828 -7.92968,-6.923828 -0.25813,-0.22575 -0.50936,-0.592185 -0.85352,-0.572265 z"
   style="fill:#ffffff"
   id="path202" />
</svg>
